<?xml version="1.0" standalone="no"?>
<!DOCTYPE svg PUBLIC "-//W3C//DTD SVG 20010904//EN" "http://www.w3.org/TR/2001/REC-SVG-20010904/DTD/svg10.dtd">
<!-- Created using Karbon, part of Calligra: http://www.calligra.org/karbon -->
<svg xmlns="http://www.w3.org/2000/svg" xmlns:xlink="http://www.w3.org/1999/xlink" width="700pt" height="700pt">
<defs>
  <linearGradient id="gradient0" gradientTransform="matrix(1.04521 0 0 1.01449 -282.383 -322.706)" gradientUnits="objectBoundingBox" x1="0.59289362137" y1="1.32199256031" x2="2.45864578291" y2="1.63039747040" spreadMethod="pad">
   <stop stop-color="#ffffff" offset="0.00000000000" stop-opacity="1.00000000000"/>
   <stop stop-color="#d0b090" offset="1.00000000000" stop-opacity="1.00000000000"/>
  </linearGradient>
 </defs>
<g id="layer1">
  <path id="path28104" transform="translate(198.041, 766.354)" fill="none" stroke="#000000" stroke-width="15.99999809000" stroke-linecap="round" stroke-linejoin="round" d="M0 2.26917C149.458 2.34191 311.663 -3.24388 471.512 2.84966"/>
  <path id="path29124" transform="translate(248.554, 310.871)" fill="url(#gradient0)" fill-rule="evenodd" stroke="#000000" stroke-width="15.99999809000" stroke-linecap="butt" stroke-linejoin="round" d="M4.18953 0C0.420699 44.8507 -0.664491 357.287 0.371879 394.503C55.5492 389.837 311.984 389.544 368.534 393.936C365.332 323.906 366.218 0.98382 366.218 0.98382"/>
  <path id="path34378" transform="translate(291.381, 630.383)" fill="none" stroke="#000000" stroke-width="15.99999809000" stroke-linecap="round" stroke-linejoin="round" d="M0 4.45073C39.8882 1.51012 123.469 -1.80178 215.438 1.15566"/>
  <path id="path2302" transform="translate(290.023, 564.223)" fill="none" stroke="#000000" stroke-width="15.99999809000" stroke-linecap="round" stroke-linejoin="round" d="M0 5.92431C50.7527 1.03831 99.8482 -0.57077 171.301 0.17275"/>
  <path id="path2304" transform="translate(290.558, 499.356)" fill="none" stroke="#000000" stroke-width="15.99999809000" stroke-linecap="round" stroke-linejoin="round" d="M0 5.59449C72.2686 0.59725 74.3044 1.12776 152.517 0"/>
  <path id="path2306" transform="translate(290.558, 437.132)" fill="none" stroke="#000000" stroke-width="15.99999809000" stroke-linecap="round" stroke-linejoin="round" d="M0 3.87986C36.6854 0.846636 58.258 -0.729204 102.16 0.329176"/>
  <path id="path28065" transform="translate(334.761, 457.704)" fill="none" stroke="#000000" stroke-width="15.99999809000" stroke-linecap="round" stroke-linejoin="round" d="M0 0C0.87899 29.932 -0.17581 -1.33627 0.70319 24.5505"/>
  <path id="path2309" transform="translate(390.441, 521.25)" fill="none" stroke="#000000" stroke-width="15.99999809000" stroke-linecap="round" stroke-linejoin="round" d="M0 0C0.879 29.932 -0.17582 -1.33629 0.70318 24.5506"/>
  <path id="path2311" transform="translate(334.761, 585.529)" fill="none" stroke="#000000" stroke-width="15.99999809000" stroke-linecap="round" stroke-linejoin="round" d="M0 0C0.87899 29.9319 -0.17581 -1.33629 0.70319 24.5505"/>
  <path id="path2313" transform="translate(451.554, 583.5)" fill="none" stroke="#000000" stroke-width="15.99999809000" stroke-linecap="round" stroke-linejoin="round" d="M0 0C0.87898 29.932 -0.17583 0.6927 0.7032 26.5795"/>
  <path id="path2315" transform="translate(390.441, 652.233)" fill="none" stroke="#000000" stroke-width="15.99999809000" stroke-linecap="round" stroke-linejoin="round" d="M0 0C0.879 29.932 -0.17582 0.6927 0.70318 26.5795"/>
  <path id="path5035" transform="translate(291.819, 379.547)" fill="none" stroke="#000000" stroke-width="15.99999809000" stroke-linecap="round" stroke-linejoin="round" d="M0 3.65742C27.8573 0.624197 42.0521 -0.349473 65.7758 0.106737"/>
  <path id="path27172" transform="translate(188.74, 251.307)" fill="none" stroke="#000000" stroke-width="15.99999809000" stroke-linecap="round" stroke-linejoin="round" d="M0 10.9407C148.654 -3.75501 368.512 -4.66882 496.096 14.4845"/>
 </g>
</svg>
